<svg width="136" height="154" viewBox="0 0 136 154" fill="none" xmlns="http://www.w3.org/2000/svg">
<path d="M46.1982 36.4905C54.03 35.3919 56.8611 43.4453 63.9944 60.1521C64.4837 61.3153 65.4223 61.3738 66.0777 60.2967C70.7953 52.5357 92.712 26.5538 106.286 9.13922C109.185 5.4095 108.296 4.27397 104.455 7.02202C89.0777 18.045 71.4508 36.3674 67.4379 40.6111C66.9702 41.1034 66.3886 40.9957 66.1147 40.3741C58.4491 22.9718 48.3154 31.0036 45.2473 35.195C44.5026 36.2136 44.955 36.6721 46.1982 36.4905Z" fill="#F5D800"/>
<path d="M92.2269 35.1185C92.1777 35.1831 92.0669 35.7801 91.9715 36.454C89.8574 51.4468 83.5088 64.2854 64.8572 77.9703C64.3094 78.3734 63.4108 78.3734 62.8661 77.9703C38.1829 59.8571 35.0163 43.2457 34.7424 21.1289C34.7363 20.4458 35.2656 19.7749 35.9272 19.6118C48.0488 16.6083 58.0501 11.0384 62.823 8.0626C63.4016 7.70255 64.3217 7.70255 64.9002 8.0626C68.4269 10.2567 74.8215 13.8634 82.8041 16.8145C83.4411 17.0484 84.3705 16.8638 84.8783 16.4114C86.2107 15.2266 87.5586 14.048 88.9249 12.8848C89.4419 12.4416 89.3342 11.9308 88.6849 11.7246C75.6155 7.54253 65.9342 0.707785 65.8173 0.627775C64.6479 -0.209258 63.0723 -0.209258 61.9029 0.627775C61.7644 0.726249 47.8026 10.6075 30.7296 13.8757C29.1448 14.1742 28 15.5651 28 17.1746C28 42.6118 30.5019 63.7992 61.9491 85.5682C62.5245 85.9682 63.1923 86.1652 63.8632 86.1652C64.534 86.1652 65.1987 85.9682 65.7773 85.5682C92.9809 66.7411 98.52 48.3387 99.5202 27.2528C99.5509 26.5727 99.2247 26.4496 98.8001 26.982C96.6552 29.6439 94.4795 32.3366 92.3223 35.0046C92.2885 35.0415 92.2577 35.0785 92.2269 35.1185Z" fill="#377FC7"/>
<path d="M17.835 131.56C17.995 131.56 18.135 131.625 18.255 131.755L19.41 133C18.53 134.02 17.46 134.815 16.2 135.385C14.95 135.955 13.435 136.24 11.655 136.24C10.115 136.24 8.715 135.975 7.455 135.445C6.195 134.905 5.12 134.155 4.23 133.195C3.34 132.225 2.65 131.065 2.16 129.715C1.67 128.365 1.425 126.88 1.425 125.26C1.425 123.64 1.68 122.155 2.19 120.805C2.7 119.455 3.415 118.295 4.335 117.325C5.265 116.355 6.375 115.605 7.665 115.075C8.955 114.535 10.38 114.265 11.94 114.265C13.47 114.265 14.82 114.51 15.99 115C17.16 115.49 18.19 116.155 19.08 116.995L18.12 118.33C18.06 118.43 17.98 118.515 17.88 118.585C17.79 118.645 17.665 118.675 17.505 118.675C17.325 118.675 17.105 118.58 16.845 118.39C16.585 118.19 16.245 117.97 15.825 117.73C15.405 117.49 14.88 117.275 14.25 117.085C13.62 116.885 12.845 116.785 11.925 116.785C10.815 116.785 9.8 116.98 8.88 117.37C7.96 117.75 7.165 118.305 6.495 119.035C5.835 119.765 5.32 120.655 4.95 121.705C4.58 122.755 4.395 123.94 4.395 125.26C4.395 126.6 4.585 127.795 4.965 128.845C5.355 129.895 5.88 130.785 6.54 131.515C7.21 132.235 7.995 132.785 8.895 133.165C9.805 133.545 10.785 133.735 11.835 133.735C12.475 133.735 13.05 133.7 13.56 133.63C14.08 133.55 14.555 133.43 14.985 133.27C15.425 133.11 15.83 132.91 16.2 132.67C16.58 132.42 16.955 132.125 17.325 131.785C17.495 131.635 17.665 131.56 17.835 131.56ZM42.2339 125.26C42.2339 126.87 41.9789 128.35 41.4689 129.7C40.9589 131.04 40.2389 132.195 39.3089 133.165C38.3789 134.135 37.2589 134.89 35.9489 135.43C34.6489 135.96 33.2089 136.225 31.6289 136.225C30.0489 136.225 28.6089 135.96 27.3089 135.43C26.0089 134.89 24.8939 134.135 23.9639 133.165C23.0339 132.195 22.3139 131.04 21.8039 129.7C21.2939 128.35 21.0389 126.87 21.0389 125.26C21.0389 123.65 21.2939 122.175 21.8039 120.835C22.3139 119.485 23.0339 118.325 23.9639 117.355C24.8939 116.375 26.0089 115.615 27.3089 115.075C28.6089 114.535 30.0489 114.265 31.6289 114.265C33.2089 114.265 34.6489 114.535 35.9489 115.075C37.2589 115.615 38.3789 116.375 39.3089 117.355C40.2389 118.325 40.9589 119.485 41.4689 120.835C41.9789 122.175 42.2339 123.65 42.2339 125.26ZM39.2489 125.26C39.2489 123.94 39.0689 122.755 38.7089 121.705C38.3489 120.655 37.8389 119.77 37.1789 119.05C36.5189 118.32 35.7189 117.76 34.7789 117.37C33.8389 116.98 32.7889 116.785 31.6289 116.785C30.4789 116.785 29.4339 116.98 28.4939 117.37C27.5539 117.76 26.7489 118.32 26.0789 119.05C25.4189 119.77 24.9089 120.655 24.5489 121.705C24.1889 122.755 24.0089 123.94 24.0089 125.26C24.0089 126.58 24.1889 127.765 24.5489 128.815C24.9089 129.855 25.4189 130.74 26.0789 131.47C26.7489 132.19 27.5539 132.745 28.4939 133.135C29.4339 133.515 30.4789 133.705 31.6289 133.705C32.7889 133.705 33.8389 133.515 34.7789 133.135C35.7189 132.745 36.5189 132.19 37.1789 131.47C37.8389 130.74 38.3489 129.855 38.7089 128.815C39.0689 127.765 39.2489 126.58 39.2489 125.26ZM63.8123 114.505V136H62.3573C62.1273 136 61.9323 135.96 61.7723 135.88C61.6223 135.8 61.4723 135.665 61.3223 135.475L48.8873 119.275C48.9073 119.525 48.9223 119.77 48.9323 120.01C48.9423 120.25 48.9473 120.475 48.9473 120.685V136H46.3973V114.505H47.8973C48.0273 114.505 48.1373 114.515 48.2273 114.535C48.3173 114.545 48.3973 114.57 48.4673 114.61C48.5373 114.64 48.6073 114.69 48.6773 114.76C48.7473 114.82 48.8223 114.9 48.9023 115L61.3373 131.185C61.3173 130.925 61.2973 130.675 61.2773 130.435C61.2673 130.185 61.2623 129.95 61.2623 129.73V114.505H63.8123ZM83.8425 116.95H76.8825V136H73.9875V116.95H67.0125V114.505H83.8425V116.95ZM100.292 133.63L100.277 136H87.0321V114.505H100.277V116.875H89.9421V124.015H98.3121V126.295H89.9421V133.63H100.292ZM115.342 117.865C115.252 118.015 115.152 118.13 115.042 118.21C114.942 118.28 114.817 118.315 114.667 118.315C114.497 118.315 114.297 118.23 114.067 118.06C113.837 117.89 113.547 117.705 113.197 117.505C112.857 117.295 112.442 117.105 111.952 116.935C111.472 116.765 110.887 116.68 110.197 116.68C109.547 116.68 108.972 116.77 108.472 116.95C107.982 117.12 107.567 117.355 107.227 117.655C106.897 117.955 106.647 118.31 106.477 118.72C106.307 119.12 106.222 119.555 106.222 120.025C106.222 120.625 106.367 121.125 106.657 121.525C106.957 121.915 107.347 122.25 107.827 122.53C108.317 122.81 108.867 123.055 109.477 123.265C110.097 123.465 110.727 123.675 111.367 123.895C112.017 124.115 112.647 124.365 113.257 124.645C113.877 124.915 114.427 125.26 114.907 125.68C115.397 126.1 115.787 126.615 116.077 127.225C116.377 127.835 116.527 128.585 116.527 129.475C116.527 130.415 116.367 131.3 116.047 132.13C115.727 132.95 115.257 133.665 114.637 134.275C114.027 134.885 113.272 135.365 112.372 135.715C111.482 136.065 110.467 136.24 109.327 136.24C107.927 136.24 106.657 135.99 105.517 135.49C104.377 134.98 103.402 134.295 102.592 133.435L103.432 132.055C103.512 131.945 103.607 131.855 103.717 131.785C103.837 131.705 103.967 131.665 104.107 131.665C104.237 131.665 104.382 131.72 104.542 131.83C104.712 131.93 104.902 132.06 105.112 132.22C105.322 132.38 105.562 132.555 105.832 132.745C106.102 132.935 106.407 133.11 106.747 133.27C107.097 133.43 107.492 133.565 107.932 133.675C108.372 133.775 108.867 133.825 109.417 133.825C110.107 133.825 110.722 133.73 111.262 133.54C111.802 133.35 112.257 133.085 112.627 132.745C113.007 132.395 113.297 131.98 113.497 131.5C113.697 131.02 113.797 130.485 113.797 129.895C113.797 129.245 113.647 128.715 113.347 128.305C113.057 127.885 112.672 127.535 112.192 127.255C111.712 126.975 111.162 126.74 110.542 126.55C109.922 126.35 109.292 126.15 108.652 125.95C108.012 125.74 107.382 125.5 106.762 125.23C106.142 124.96 105.592 124.61 105.112 124.18C104.632 123.75 104.242 123.215 103.942 122.575C103.652 121.925 103.507 121.125 103.507 120.175C103.507 119.415 103.652 118.68 103.942 117.97C104.242 117.26 104.672 116.63 105.232 116.08C105.802 115.53 106.497 115.09 107.317 114.76C108.147 114.43 109.097 114.265 110.167 114.265C111.367 114.265 112.457 114.455 113.437 114.835C114.427 115.215 115.297 115.765 116.047 116.485L115.342 117.865ZM135.171 116.95H128.211V136H125.316V116.95H118.341V114.505H135.171V116.95Z" fill="#3C5EA5"/>
<path d="M22.72 149.34L21.595 146.425C21.5617 146.338 21.5267 146.238 21.49 146.125C21.4533 146.008 21.4183 145.885 21.385 145.755C21.315 146.025 21.2433 146.25 21.17 146.43L20.045 149.34H22.72ZM24.74 152H23.99C23.9033 152 23.8333 151.978 23.78 151.935C23.7267 151.892 23.6867 151.837 23.66 151.77L22.99 150.04H19.775L19.105 151.77C19.085 151.83 19.0467 151.883 18.99 151.93C18.9333 151.977 18.8633 152 18.78 152H18.03L20.895 144.835H21.875L24.74 152ZM31.4876 144.835V152H31.0026C30.9259 152 30.8609 151.987 30.8076 151.96C30.7576 151.933 30.7076 151.888 30.6576 151.825L26.5126 146.425C26.5192 146.508 26.5242 146.59 26.5276 146.67C26.5309 146.75 26.5326 146.825 26.5326 146.895V152H25.6826V144.835H26.1826C26.2259 144.835 26.2626 144.838 26.2926 144.845C26.3226 144.848 26.3492 144.857 26.3726 144.87C26.3959 144.88 26.4192 144.897 26.4426 144.92C26.4659 144.94 26.4909 144.967 26.5176 145L30.6626 150.395C30.6559 150.308 30.6492 150.225 30.6426 150.145C30.6392 150.062 30.6376 149.983 30.6376 149.91V144.835H31.4876ZM36.0093 149.145V152H35.0393V149.145L32.4143 144.835H33.2643C33.351 144.835 33.4193 144.857 33.4693 144.9C33.5193 144.94 33.5626 144.993 33.5993 145.06L35.2393 147.845C35.2993 147.962 35.3543 148.072 35.4043 148.175C35.4543 148.275 35.4976 148.377 35.5343 148.48C35.571 148.377 35.6126 148.275 35.6593 148.175C35.706 148.072 35.7576 147.962 35.8143 147.845L37.4493 145.06C37.4793 145.003 37.521 144.952 37.5743 144.905C37.6276 144.858 37.696 144.835 37.7793 144.835H38.6343L36.0093 149.145ZM44.4045 145.65H42.0845V152H41.1195V145.65H38.7945V144.835H44.4045V145.65ZM46.4377 152H45.4677V144.835H46.4377V152ZM55.7255 144.835V152H54.8755V146.735C54.8755 146.665 54.8771 146.59 54.8805 146.51C54.8871 146.43 54.8938 146.348 54.9005 146.265L52.4405 150.745C52.3638 150.895 52.2471 150.97 52.0905 150.97H51.9505C51.7938 150.97 51.6771 150.895 51.6005 150.745L49.0905 146.245C49.1105 146.422 49.1205 146.585 49.1205 146.735V152H48.2705V144.835H48.9855C49.0721 144.835 49.1388 144.843 49.1855 144.86C49.2321 144.877 49.2771 144.923 49.3205 145L51.7955 149.41C51.8355 149.49 51.8738 149.573 51.9105 149.66C51.9505 149.747 51.9871 149.835 52.0205 149.925C52.0538 149.835 52.0888 149.747 52.1255 149.66C52.1621 149.57 52.2021 149.485 52.2455 149.405L54.6755 145C54.7155 144.923 54.7588 144.877 54.8055 144.86C54.8555 144.843 54.9238 144.835 55.0105 144.835H55.7255ZM61.9776 151.21L61.9726 152H57.5576V144.835H61.9726V145.625H58.5276V148.005H61.3176V148.765H58.5276V151.21H61.9776ZM63.0641 153.21C63.0374 153.187 63.0191 153.165 63.0091 153.145C62.9991 153.125 62.9941 153.1 62.9941 153.07C62.9941 153.047 63.0007 153.023 63.0141 153C63.0307 152.977 63.0491 152.955 63.0691 152.935C63.1024 152.898 63.1441 152.85 63.1941 152.79C63.2474 152.73 63.3007 152.658 63.3541 152.575C63.4074 152.495 63.4557 152.405 63.4991 152.305C63.5457 152.208 63.5791 152.105 63.5991 151.995C63.5891 151.998 63.5774 152 63.5641 152C63.5541 152 63.5441 152 63.5341 152C63.3607 152 63.2191 151.943 63.1091 151.83C63.0024 151.713 62.9491 151.565 62.9491 151.385C62.9491 151.228 63.0024 151.095 63.1091 150.985C63.2191 150.875 63.3641 150.82 63.5441 150.82C63.6441 150.82 63.7324 150.838 63.8091 150.875C63.8857 150.912 63.9491 150.963 63.9991 151.03C64.0524 151.093 64.0924 151.168 64.1191 151.255C64.1457 151.338 64.1591 151.43 64.1591 151.53C64.1591 151.68 64.1374 151.837 64.0941 152C64.0541 152.16 63.9924 152.318 63.9091 152.475C63.8291 152.635 63.7307 152.79 63.6141 152.94C63.4974 153.09 63.3641 153.228 63.2141 153.355L63.0641 153.21ZM72.5733 151.21L72.5683 152H68.1533V144.835H72.5683V145.625H69.1233V148.005H71.9133V148.765H69.1233V151.21H72.5733ZM79.7498 144.835L76.8298 152H75.9598L73.0398 144.835H73.8148C73.9014 144.835 73.9714 144.857 74.0248 144.9C74.0781 144.943 74.1181 144.998 74.1448 145.065L76.1648 150.12C76.2081 150.233 76.2498 150.357 76.2898 150.49C76.3331 150.623 76.3714 150.763 76.4048 150.91C76.4381 150.763 76.4731 150.623 76.5098 150.49C76.5464 150.357 76.5864 150.233 76.6298 150.12L78.6448 145.065C78.6648 145.008 78.7031 144.957 78.7598 144.91C78.8198 144.86 78.8914 144.835 78.9748 144.835H79.7498ZM85.1123 151.21L85.1073 152H80.6923V144.835H85.1073V145.625H81.6623V148.005H84.4523V148.765H81.6623V151.21H85.1123ZM88.4488 148.305C88.7288 148.305 88.9755 148.272 89.1888 148.205C89.4055 148.135 89.5855 148.038 89.7288 147.915C89.8755 147.788 89.9855 147.638 90.0588 147.465C90.1322 147.292 90.1688 147.1 90.1688 146.89C90.1688 146.463 90.0288 146.142 89.7488 145.925C89.4688 145.708 89.0488 145.6 88.4888 145.6H87.4288V148.305H88.4488ZM91.7588 152H90.8988C90.7222 152 90.5922 151.932 90.5088 151.795L88.6488 149.235C88.5922 149.155 88.5305 149.098 88.4638 149.065C88.4005 149.028 88.3005 149.01 88.1638 149.01H87.4288V152H86.4638V144.835H88.4888C88.9422 144.835 89.3338 144.882 89.6638 144.975C89.9938 145.065 90.2655 145.197 90.4788 145.37C90.6955 145.543 90.8555 145.753 90.9588 146C91.0622 146.243 91.1138 146.517 91.1138 146.82C91.1138 147.073 91.0738 147.31 90.9938 147.53C90.9138 147.75 90.7972 147.948 90.6438 148.125C90.4938 148.298 90.3088 148.447 90.0888 148.57C89.8722 148.693 89.6255 148.787 89.3488 148.85C89.4722 148.92 89.5788 149.022 89.6688 149.155L91.7588 152ZM95.1499 149.145V152H94.1799V149.145L91.5549 144.835H92.4049C92.4916 144.835 92.5599 144.857 92.6099 144.9C92.6599 144.94 92.7033 144.993 92.7399 145.06L94.3799 147.845C94.4399 147.962 94.4949 148.072 94.5449 148.175C94.5949 148.275 94.6383 148.377 94.6749 148.48C94.7116 148.377 94.7533 148.275 94.7999 148.175C94.8466 148.072 94.8983 147.962 94.9549 147.845L96.5899 145.06C96.6199 145.003 96.6616 144.952 96.7149 144.905C96.7683 144.858 96.8366 144.835 96.9199 144.835H97.7749L95.1499 149.145ZM104.91 148.42C104.91 148.957 104.825 149.445 104.655 149.885C104.485 150.325 104.245 150.702 103.935 151.015C103.625 151.328 103.252 151.572 102.815 151.745C102.382 151.915 101.902 152 101.375 152H98.7002V144.835H101.375C101.902 144.835 102.382 144.922 102.815 145.095C103.252 145.265 103.625 145.508 103.935 145.825C104.245 146.138 104.485 146.515 104.655 146.955C104.825 147.395 104.91 147.883 104.91 148.42ZM103.915 148.42C103.915 147.98 103.855 147.587 103.735 147.24C103.615 146.893 103.445 146.6 103.225 146.36C103.005 146.12 102.738 145.937 102.425 145.81C102.112 145.683 101.762 145.62 101.375 145.62H99.6702V151.215H101.375C101.762 151.215 102.112 151.152 102.425 151.025C102.738 150.898 103.005 150.717 103.225 150.48C103.445 150.24 103.615 149.947 103.735 149.6C103.855 149.253 103.915 148.86 103.915 148.42ZM109.917 149.34L108.792 146.425C108.759 146.338 108.724 146.238 108.687 146.125C108.651 146.008 108.616 145.885 108.582 145.755C108.512 146.025 108.441 146.25 108.367 146.43L107.242 149.34H109.917ZM111.937 152H111.187C111.101 152 111.031 151.978 110.977 151.935C110.924 151.892 110.884 151.837 110.857 151.77L110.187 150.04H106.972L106.302 151.77C106.282 151.83 106.244 151.883 106.187 151.93C106.131 151.977 106.061 152 105.977 152H105.227L108.092 144.835H109.072L111.937 152ZM114.867 149.145V152H113.897V149.145L111.272 144.835H112.122C112.208 144.835 112.277 144.857 112.327 144.9C112.377 144.94 112.42 144.993 112.457 145.06L114.097 147.845C114.157 147.962 114.212 148.072 114.262 148.175C114.312 148.275 114.355 148.377 114.392 148.48C114.428 148.377 114.47 148.275 114.517 148.175C114.563 148.072 114.615 147.962 114.672 147.845L116.307 145.06C116.337 145.003 116.378 144.952 116.432 144.905C116.485 144.858 116.553 144.835 116.637 144.835H117.492L114.867 149.145Z" fill="#3C5EA5"/>
</svg>
