<svg width="191" height="54" viewBox="0 0 191 54" fill="none" xmlns="http://www.w3.org/2000/svg">
<path d="M11.3739 22.8066C16.2687 22.1199 18.0382 27.1533 22.4965 37.5951C22.8023 38.3221 23.3889 38.3586 23.7986 37.6854C26.747 32.8348 40.445 16.5961 48.9288 5.71201C50.7406 3.38093 50.1847 2.67122 47.7844 4.38876C38.1736 11.2781 27.1567 22.7296 24.6487 25.3819C24.3563 25.6896 23.9928 25.6223 23.8217 25.2338C19.0306 14.3574 12.6971 19.3773 10.7796 21.9968C10.3141 22.6335 10.5968 22.92 11.3739 22.8066Z" fill="#C4C4C4"/>
<path d="M40.1418 21.949C40.111 21.9894 40.0418 22.3626 39.9822 22.7838C38.6608 32.1542 34.693 40.1784 23.0357 48.7314C22.6934 48.9834 22.1318 48.9834 21.7913 48.7314C6.3643 37.4107 4.38519 27.0286 4.21402 13.2056C4.21017 12.7786 4.54098 12.3593 4.9545 12.2574C12.5305 10.3802 18.7813 6.89898 21.7644 5.03912C22.126 4.81409 22.7011 4.81409 23.0626 5.03912C25.2668 6.41046 29.2635 8.6646 34.2526 10.5091C34.6507 10.6552 35.2316 10.5398 35.5489 10.2571C36.3817 9.51664 37.2241 8.78 38.0781 8.05298C38.4012 7.77602 38.3339 7.45675 37.9281 7.32789C29.7597 4.71408 23.7089 0.442366 23.6358 0.392359C22.9049 -0.130786 21.9202 -0.130786 21.1893 0.392359C21.1028 0.453906 12.3766 6.62972 1.70599 8.67229C0.715479 8.85886 0 9.7282 0 10.7341C0 26.6323 1.56367 39.8745 21.2182 53.4801C21.5778 53.7301 21.9952 53.8532 22.4145 53.8532C22.8338 53.8532 23.2492 53.7301 23.6108 53.4801C40.613 41.7132 44.075 30.2117 44.7001 17.033C44.7193 16.608 44.5155 16.531 44.25 16.8638C42.9095 18.5274 41.5497 20.2104 40.2014 21.8779C40.1803 21.901 40.161 21.924 40.1418 21.949Z" fill="#C4C4C4"/>
<path d="M72.835 28.56C72.995 28.56 73.135 28.625 73.255 28.755L74.41 30C73.53 31.02 72.46 31.815 71.2 32.385C69.95 32.955 68.435 33.24 66.655 33.24C65.115 33.24 63.715 32.975 62.455 32.445C61.195 31.905 60.12 31.155 59.23 30.195C58.34 29.225 57.65 28.065 57.16 26.715C56.67 25.365 56.425 23.88 56.425 22.26C56.425 20.64 56.68 19.155 57.19 17.805C57.7 16.455 58.415 15.295 59.335 14.325C60.265 13.355 61.375 12.605 62.665 12.075C63.955 11.535 65.38 11.265 66.94 11.265C68.47 11.265 69.82 11.51 70.99 12C72.16 12.49 73.19 13.155 74.08 13.995L73.12 15.33C73.06 15.43 72.98 15.515 72.88 15.585C72.79 15.645 72.665 15.675 72.505 15.675C72.325 15.675 72.105 15.58 71.845 15.39C71.585 15.19 71.245 14.97 70.825 14.73C70.405 14.49 69.88 14.275 69.25 14.085C68.62 13.885 67.845 13.785 66.925 13.785C65.815 13.785 64.8 13.98 63.88 14.37C62.96 14.75 62.165 15.305 61.495 16.035C60.835 16.765 60.32 17.655 59.95 18.705C59.58 19.755 59.395 20.94 59.395 22.26C59.395 23.6 59.585 24.795 59.965 25.845C60.355 26.895 60.88 27.785 61.54 28.515C62.21 29.235 62.995 29.785 63.895 30.165C64.805 30.545 65.785 30.735 66.835 30.735C67.475 30.735 68.05 30.7 68.56 30.63C69.08 30.55 69.555 30.43 69.985 30.27C70.425 30.11 70.83 29.91 71.2 29.67C71.58 29.42 71.955 29.125 72.325 28.785C72.495 28.635 72.665 28.56 72.835 28.56ZM97.2339 22.26C97.2339 23.87 96.9789 25.35 96.4689 26.7C95.9589 28.04 95.2389 29.195 94.3089 30.165C93.3789 31.135 92.2589 31.89 90.9489 32.43C89.6489 32.96 88.2089 33.225 86.6289 33.225C85.0489 33.225 83.6089 32.96 82.3089 32.43C81.0089 31.89 79.8939 31.135 78.9639 30.165C78.0339 29.195 77.3139 28.04 76.8039 26.7C76.2939 25.35 76.0389 23.87 76.0389 22.26C76.0389 20.65 76.2939 19.175 76.8039 17.835C77.3139 16.485 78.0339 15.325 78.9639 14.355C79.8939 13.375 81.0089 12.615 82.3089 12.075C83.6089 11.535 85.0489 11.265 86.6289 11.265C88.2089 11.265 89.6489 11.535 90.9489 12.075C92.2589 12.615 93.3789 13.375 94.3089 14.355C95.2389 15.325 95.9589 16.485 96.4689 17.835C96.9789 19.175 97.2339 20.65 97.2339 22.26ZM94.2489 22.26C94.2489 20.94 94.0689 19.755 93.7089 18.705C93.3489 17.655 92.8389 16.77 92.1789 16.05C91.5189 15.32 90.7189 14.76 89.7789 14.37C88.8389 13.98 87.7889 13.785 86.6289 13.785C85.4789 13.785 84.4339 13.98 83.4939 14.37C82.5539 14.76 81.7489 15.32 81.0789 16.05C80.4189 16.77 79.9089 17.655 79.5489 18.705C79.1889 19.755 79.0089 20.94 79.0089 22.26C79.0089 23.58 79.1889 24.765 79.5489 25.815C79.9089 26.855 80.4189 27.74 81.0789 28.47C81.7489 29.19 82.5539 29.745 83.4939 30.135C84.4339 30.515 85.4789 30.705 86.6289 30.705C87.7889 30.705 88.8389 30.515 89.7789 30.135C90.7189 29.745 91.5189 29.19 92.1789 28.47C92.8389 27.74 93.3489 26.855 93.7089 25.815C94.0689 24.765 94.2489 23.58 94.2489 22.26ZM118.812 11.505V33H117.357C117.127 33 116.932 32.96 116.772 32.88C116.622 32.8 116.472 32.665 116.322 32.475L103.887 16.275C103.907 16.525 103.922 16.77 103.932 17.01C103.942 17.25 103.947 17.475 103.947 17.685V33H101.397V11.505H102.897C103.027 11.505 103.137 11.515 103.227 11.535C103.317 11.545 103.397 11.57 103.467 11.61C103.537 11.64 103.607 11.69 103.677 11.76C103.747 11.82 103.822 11.9 103.902 12L116.337 28.185C116.317 27.925 116.297 27.675 116.277 27.435C116.267 27.185 116.262 26.95 116.262 26.73V11.505H118.812ZM138.843 13.95H131.883V33H128.988V13.95H122.013V11.505H138.843V13.95ZM155.292 30.63L155.277 33H142.032V11.505H155.277V13.875H144.942V21.015H153.312V23.295H144.942V30.63H155.292ZM170.342 14.865C170.252 15.015 170.152 15.13 170.042 15.21C169.942 15.28 169.817 15.315 169.667 15.315C169.497 15.315 169.297 15.23 169.067 15.06C168.837 14.89 168.547 14.705 168.197 14.505C167.857 14.295 167.442 14.105 166.952 13.935C166.472 13.765 165.887 13.68 165.197 13.68C164.547 13.68 163.972 13.77 163.472 13.95C162.982 14.12 162.567 14.355 162.227 14.655C161.897 14.955 161.647 15.31 161.477 15.72C161.307 16.12 161.222 16.555 161.222 17.025C161.222 17.625 161.367 18.125 161.657 18.525C161.957 18.915 162.347 19.25 162.827 19.53C163.317 19.81 163.867 20.055 164.477 20.265C165.097 20.465 165.727 20.675 166.367 20.895C167.017 21.115 167.647 21.365 168.257 21.645C168.877 21.915 169.427 22.26 169.907 22.68C170.397 23.1 170.787 23.615 171.077 24.225C171.377 24.835 171.527 25.585 171.527 26.475C171.527 27.415 171.367 28.3 171.047 29.13C170.727 29.95 170.257 30.665 169.637 31.275C169.027 31.885 168.272 32.365 167.372 32.715C166.482 33.065 165.467 33.24 164.327 33.24C162.927 33.24 161.657 32.99 160.517 32.49C159.377 31.98 158.402 31.295 157.592 30.435L158.432 29.055C158.512 28.945 158.607 28.855 158.717 28.785C158.837 28.705 158.967 28.665 159.107 28.665C159.237 28.665 159.382 28.72 159.542 28.83C159.712 28.93 159.902 29.06 160.112 29.22C160.322 29.38 160.562 29.555 160.832 29.745C161.102 29.935 161.407 30.11 161.747 30.27C162.097 30.43 162.492 30.565 162.932 30.675C163.372 30.775 163.867 30.825 164.417 30.825C165.107 30.825 165.722 30.73 166.262 30.54C166.802 30.35 167.257 30.085 167.627 29.745C168.007 29.395 168.297 28.98 168.497 28.5C168.697 28.02 168.797 27.485 168.797 26.895C168.797 26.245 168.647 25.715 168.347 25.305C168.057 24.885 167.672 24.535 167.192 24.255C166.712 23.975 166.162 23.74 165.542 23.55C164.922 23.35 164.292 23.15 163.652 22.95C163.012 22.74 162.382 22.5 161.762 22.23C161.142 21.96 160.592 21.61 160.112 21.18C159.632 20.75 159.242 20.215 158.942 19.575C158.652 18.925 158.507 18.125 158.507 17.175C158.507 16.415 158.652 15.68 158.942 14.97C159.242 14.26 159.672 13.63 160.232 13.08C160.802 12.53 161.497 12.09 162.317 11.76C163.147 11.43 164.097 11.265 165.167 11.265C166.367 11.265 167.457 11.455 168.437 11.835C169.427 12.215 170.297 12.765 171.047 13.485L170.342 14.865ZM190.171 13.95H183.211V33H180.316V13.95H173.341V11.505H190.171V13.95Z" fill="#C4C4C4"/>
<path d="M77.72 46.34L76.595 43.425C76.5617 43.3383 76.5267 43.2383 76.49 43.125C76.4533 43.0083 76.4183 42.885 76.385 42.755C76.315 43.025 76.2433 43.25 76.17 43.43L75.045 46.34H77.72ZM79.74 49H78.99C78.9033 49 78.8333 48.9783 78.78 48.935C78.7267 48.8917 78.6867 48.8367 78.66 48.77L77.99 47.04H74.775L74.105 48.77C74.085 48.83 74.0467 48.8833 73.99 48.93C73.9333 48.9767 73.8633 49 73.78 49H73.03L75.895 41.835H76.875L79.74 49ZM86.4876 41.835V49H86.0026C85.9259 49 85.8609 48.9867 85.8076 48.96C85.7576 48.9333 85.7076 48.8883 85.6576 48.825L81.5126 43.425C81.5192 43.5083 81.5242 43.59 81.5276 43.67C81.5309 43.75 81.5326 43.825 81.5326 43.895V49H80.6826V41.835H81.1826C81.2259 41.835 81.2626 41.8383 81.2926 41.845C81.3226 41.8483 81.3492 41.8567 81.3726 41.87C81.3959 41.88 81.4192 41.8967 81.4426 41.92C81.4659 41.94 81.4909 41.9667 81.5176 42L85.6626 47.395C85.6559 47.3083 85.6492 47.225 85.6426 47.145C85.6392 47.0617 85.6376 46.9833 85.6376 46.91V41.835H86.4876ZM91.0093 46.145V49H90.0393V46.145L87.4143 41.835H88.2643C88.351 41.835 88.4193 41.8567 88.4693 41.9C88.5193 41.94 88.5626 41.9933 88.5993 42.06L90.2393 44.845C90.2993 44.9617 90.3543 45.0717 90.4043 45.175C90.4543 45.275 90.4976 45.3767 90.5343 45.48C90.571 45.3767 90.6126 45.275 90.6593 45.175C90.706 45.0717 90.7576 44.9617 90.8143 44.845L92.4493 42.06C92.4793 42.0033 92.521 41.9517 92.5743 41.905C92.6276 41.8583 92.696 41.835 92.7793 41.835H93.6343L91.0093 46.145ZM99.4045 42.65H97.0845V49H96.1195V42.65H93.7945V41.835H99.4045V42.65ZM101.438 49H100.468V41.835H101.438V49ZM110.725 41.835V49H109.875V43.735C109.875 43.665 109.877 43.59 109.88 43.51C109.887 43.43 109.894 43.3483 109.9 43.265L107.44 47.745C107.364 47.895 107.247 47.97 107.09 47.97H106.95C106.794 47.97 106.677 47.895 106.6 47.745L104.09 43.245C104.11 43.4217 104.12 43.585 104.12 43.735V49H103.27V41.835H103.985C104.072 41.835 104.139 41.8433 104.185 41.86C104.232 41.8767 104.277 41.9233 104.32 42L106.795 46.41C106.835 46.49 106.874 46.5733 106.91 46.66C106.95 46.7467 106.987 46.835 107.02 46.925C107.054 46.835 107.089 46.7467 107.125 46.66C107.162 46.57 107.202 46.485 107.245 46.405L109.675 42C109.715 41.9233 109.759 41.8767 109.805 41.86C109.855 41.8433 109.924 41.835 110.01 41.835H110.725ZM116.978 48.21L116.973 49H112.558V41.835H116.973V42.625H113.528V45.005H116.318V45.765H113.528V48.21H116.978ZM118.064 50.21C118.037 50.1867 118.019 50.165 118.009 50.145C117.999 50.125 117.994 50.1 117.994 50.07C117.994 50.0467 118.001 50.0233 118.014 50C118.031 49.9767 118.049 49.955 118.069 49.935C118.102 49.8983 118.144 49.85 118.194 49.79C118.247 49.73 118.301 49.6583 118.354 49.575C118.407 49.495 118.456 49.405 118.499 49.305C118.546 49.2083 118.579 49.105 118.599 48.995C118.589 48.9983 118.577 49 118.564 49C118.554 49 118.544 49 118.534 49C118.361 49 118.219 48.9433 118.109 48.83C118.002 48.7133 117.949 48.565 117.949 48.385C117.949 48.2283 118.002 48.095 118.109 47.985C118.219 47.875 118.364 47.82 118.544 47.82C118.644 47.82 118.732 47.8383 118.809 47.875C118.886 47.9117 118.949 47.9633 118.999 48.03C119.052 48.0933 119.092 48.1683 119.119 48.255C119.146 48.3383 119.159 48.43 119.159 48.53C119.159 48.68 119.137 48.8367 119.094 49C119.054 49.16 118.992 49.3183 118.909 49.475C118.829 49.635 118.731 49.79 118.614 49.94C118.497 50.09 118.364 50.2283 118.214 50.355L118.064 50.21ZM127.573 48.21L127.568 49H123.153V41.835H127.568V42.625H124.123V45.005H126.913V45.765H124.123V48.21H127.573ZM134.75 41.835L131.83 49H130.96L128.04 41.835H128.815C128.901 41.835 128.971 41.8567 129.025 41.9C129.078 41.9433 129.118 41.9983 129.145 42.065L131.165 47.12C131.208 47.2333 131.25 47.3567 131.29 47.49C131.333 47.6233 131.371 47.7633 131.405 47.91C131.438 47.7633 131.473 47.6233 131.51 47.49C131.546 47.3567 131.586 47.2333 131.63 47.12L133.645 42.065C133.665 42.0083 133.703 41.9567 133.76 41.91C133.82 41.86 133.891 41.835 133.975 41.835H134.75ZM140.112 48.21L140.107 49H135.692V41.835H140.107V42.625H136.662V45.005H139.452V45.765H136.662V48.21H140.112ZM143.449 45.305C143.729 45.305 143.975 45.2717 144.189 45.205C144.405 45.135 144.585 45.0383 144.729 44.915C144.875 44.7883 144.985 44.6383 145.059 44.465C145.132 44.2917 145.169 44.1 145.169 43.89C145.169 43.4633 145.029 43.1417 144.749 42.925C144.469 42.7083 144.049 42.6 143.489 42.6H142.429V45.305H143.449ZM146.759 49H145.899C145.722 49 145.592 48.9317 145.509 48.795L143.649 46.235C143.592 46.155 143.53 46.0983 143.464 46.065C143.4 46.0283 143.3 46.01 143.164 46.01H142.429V49H141.464V41.835H143.489C143.942 41.835 144.334 41.8817 144.664 41.975C144.994 42.065 145.265 42.1967 145.479 42.37C145.695 42.5433 145.855 42.7533 145.959 43C146.062 43.2433 146.114 43.5167 146.114 43.82C146.114 44.0733 146.074 44.31 145.994 44.53C145.914 44.75 145.797 44.9483 145.644 45.125C145.494 45.2983 145.309 45.4467 145.089 45.57C144.872 45.6933 144.625 45.7867 144.349 45.85C144.472 45.92 144.579 46.0217 144.669 46.155L146.759 49ZM150.15 46.145V49H149.18V46.145L146.555 41.835H147.405C147.492 41.835 147.56 41.8567 147.61 41.9C147.66 41.94 147.703 41.9933 147.74 42.06L149.38 44.845C149.44 44.9617 149.495 45.0717 149.545 45.175C149.595 45.275 149.638 45.3767 149.675 45.48C149.712 45.3767 149.753 45.275 149.8 45.175C149.847 45.0717 149.898 44.9617 149.955 44.845L151.59 42.06C151.62 42.0033 151.662 41.9517 151.715 41.905C151.768 41.8583 151.837 41.835 151.92 41.835H152.775L150.15 46.145ZM159.91 45.42C159.91 45.9567 159.825 46.445 159.655 46.885C159.485 47.325 159.245 47.7017 158.935 48.015C158.625 48.3283 158.252 48.5717 157.815 48.745C157.382 48.915 156.902 49 156.375 49H153.7V41.835H156.375C156.902 41.835 157.382 41.9217 157.815 42.095C158.252 42.265 158.625 42.5083 158.935 42.825C159.245 43.1383 159.485 43.515 159.655 43.955C159.825 44.395 159.91 44.8833 159.91 45.42ZM158.915 45.42C158.915 44.98 158.855 44.5867 158.735 44.24C158.615 43.8933 158.445 43.6 158.225 43.36C158.005 43.12 157.738 42.9367 157.425 42.81C157.112 42.6833 156.762 42.62 156.375 42.62H154.67V48.215H156.375C156.762 48.215 157.112 48.1517 157.425 48.025C157.738 47.8983 158.005 47.7167 158.225 47.48C158.445 47.24 158.615 46.9467 158.735 46.6C158.855 46.2533 158.915 45.86 158.915 45.42ZM164.917 46.34L163.792 43.425C163.759 43.3383 163.724 43.2383 163.687 43.125C163.651 43.0083 163.616 42.885 163.582 42.755C163.512 43.025 163.441 43.25 163.367 43.43L162.242 46.34H164.917ZM166.937 49H166.187C166.101 49 166.031 48.9783 165.977 48.935C165.924 48.8917 165.884 48.8367 165.857 48.77L165.187 47.04H161.972L161.302 48.77C161.282 48.83 161.244 48.8833 161.187 48.93C161.131 48.9767 161.061 49 160.977 49H160.227L163.092 41.835H164.072L166.937 49ZM169.867 46.145V49H168.897V46.145L166.272 41.835H167.122C167.208 41.835 167.277 41.8567 167.327 41.9C167.377 41.94 167.42 41.9933 167.457 42.06L169.097 44.845C169.157 44.9617 169.212 45.0717 169.262 45.175C169.312 45.275 169.355 45.3767 169.392 45.48C169.428 45.3767 169.47 45.275 169.517 45.175C169.563 45.0717 169.615 44.9617 169.672 44.845L171.307 42.06C171.337 42.0033 171.378 41.9517 171.432 41.905C171.485 41.8583 171.553 41.835 171.637 41.835H172.492L169.867 46.145Z" fill="#C4C4C4"/>
</svg>
