<svg width="300" height="325" viewBox="0 0 300 325" fill="none" xmlns="http://www.w3.org/2000/svg">
<path d="M164.516 0H135.484V116.129H164.516V0Z" fill="#FF6643"/>
<path d="M150 324.193C67.289 324.193 0 256.903 0 174.193C0 145.274 8.25109 117.195 23.8624 92.9927C39.0551 69.4406 60.4398 50.6463 85.706 38.6423L98.164 64.8658C56.1689 84.8176 29.0324 127.731 29.0324 174.192C29.0324 240.894 83.2986 295.16 150 295.16C216.701 295.16 270.968 240.894 270.968 174.192C270.968 127.731 243.831 84.8176 201.836 64.8658L214.294 38.6423C239.56 50.6463 260.945 69.4393 276.138 92.9927C291.75 117.195 300 145.274 300 174.193C300 256.903 232.711 324.193 150 324.193Z" fill="#FF6643"/>
<path d="M276.137 92.9933C260.944 69.4412 239.559 50.6469 214.293 38.6429L201.835 64.8664C243.83 84.8182 270.967 127.732 270.967 174.193C270.967 240.894 216.701 295.161 149.999 295.161V324.193C232.71 324.193 299.999 256.903 299.999 174.193C300 145.275 291.749 117.195 276.137 92.9933Z" fill="#FF4F19"/>
</svg>
