<svg width="250" height="250" viewBox="0 0 250 250" fill="none" xmlns="http://www.w3.org/2000/svg">
<rect width="250" height="250" rx="125" fill="white"/>
<path d="M95.0225 116.174C105.791 114.664 109.684 125.737 119.492 148.709C120.165 150.309 121.456 150.389 122.357 148.908C128.844 138.237 158.979 102.511 177.643 78.5664C181.629 73.438 180.407 71.8767 175.126 75.6553C153.982 90.8119 129.745 116.005 124.227 121.84C123.584 122.517 122.784 122.369 122.408 121.514C111.867 97.5862 97.9337 108.63 93.715 114.393C92.6911 115.794 93.3131 116.424 95.0225 116.174Z" fill="#F5D800"/>
<path d="M158.312 114.288C158.244 114.377 158.092 115.198 157.961 116.124C155.054 136.739 146.325 154.392 120.679 173.209C119.925 173.763 118.69 173.763 117.941 173.209C84.0015 148.304 79.6474 125.463 79.2708 95.0523C79.2624 94.1129 79.9902 93.1905 80.8999 92.9663C97.5671 88.8365 111.319 81.1778 117.882 77.0861C118.677 76.591 119.942 76.591 120.738 77.0861C125.587 80.103 134.38 85.0621 145.356 89.12C146.232 89.4416 147.509 89.1877 148.208 88.5657C150.04 86.9366 151.893 85.316 153.772 83.7166C154.483 83.1073 154.335 82.4049 153.442 82.1214C135.471 76.371 122.16 66.9732 121.999 66.8632C120.391 65.7123 118.224 65.7123 116.617 66.8632C116.426 66.9986 97.2286 80.5854 73.7532 85.0791C71.5741 85.4895 70 87.4021 70 89.615C70 124.591 73.4401 153.724 116.68 183.656C117.471 184.206 118.389 184.477 119.312 184.477C120.234 184.477 121.148 184.206 121.944 183.656C159.349 157.769 166.965 132.466 168.34 103.473C168.383 102.538 167.934 102.368 167.35 103.1C164.401 106.76 161.409 110.463 158.443 114.131C158.397 114.182 158.354 114.233 158.312 114.288Z" fill="#377FC7"/>
</svg>
